HIERARCHY
ROOT Hips
{
	OFFSET 0.00000 0.00000 0.00000
	CHANNELS 6 Xposition Yposition Zposition Zrotation Yrotation Xrotation 
	JOINT LHipJoint
	{
		OFFSET 0 0 0
		CHANNELS 3 Zrotation Yrotation Xrotation
		JOINT LeftHip
		{
			OFFSET 1.56857 -1.73443 1.15205
			CHANNELS 3 Zrotation Yrotation Xrotation
			JOINT LeftKnee
			{
				OFFSET 2.39362 -6.57643 0.00000
				CHANNELS 3 Zrotation Yrotation Xrotation
				JOINT LeftAnkle
				{
					OFFSET 2.50952 -6.89485 0.00000
					CHANNELS 3 Zrotation Yrotation Xrotation
					JOINT LeftToe
					{
						OFFSET 0.17171 -0.47178 1.88682
						CHANNELS 3 Zrotation Yrotation Xrotation
						End Site
						{
							OFFSET 0.00000 -0.00000 0.98146
						}
					}
				}
			}
		}
	}
	JOINT RHipJoint
	{
		OFFSET 0 0 0
		CHANNELS 3 Zrotation Yrotation Xrotation
		JOINT RightHip
		{
			OFFSET -1.28153 -1.73443 1.15205
			CHANNELS 3 Zrotation Yrotation Xrotation
			JOINT RightKnee
			{
				OFFSET -2.26861 -6.23296 0.00000
				CHANNELS 3 Zrotation Yrotation Xrotation
				JOINT RightAnkle
				{
					OFFSET -2.54143 -6.98254 0.00000
					CHANNELS 3 Zrotation Yrotation Xrotation
					JOINT RightToe
					{
						OFFSET -0.23309 -0.64041 1.93119
						CHANNELS 3 Zrotation Yrotation Xrotation
						End Site
						{
							OFFSET -0.00000 -0.00000 1.02013
						}
					}
				}
			}
		}
	}
	JOINT lowerback
	{
		OFFSET 0 0 0
		CHANNELS 3 Zrotation Yrotation Xrotation
		JOINT Chest
		{
			OFFSET -0.07096 2.10460 -0.27878
			CHANNELS 3 Zrotation Yrotation Xrotation
			JOINT Chest2
			{
				OFFSET -0.00826 2.13662 -0.08279
				CHANNELS 3 Zrotation Yrotation Xrotation
				JOINT lowerneck
				{
					OFFSET 0 0 0
					CHANNELS 3 Zrotation Yrotation Xrotation
					JOINT Neck
					{
						OFFSET 0.03239 1.77799 0.24435
						CHANNELS 3 Zrotation Yrotation Xrotation
						JOINT Head
						{
							OFFSET 0.01026 1.74194 -0.49664
							CHANNELS 3 Zrotation Yrotation Xrotation
							End Site
							{
								OFFSET 0.00170 1.83057 -0.19653
							}
						}
					}
				}
				JOINT LeftCollar
				{
					OFFSET 0 0 0
					CHANNELS 3 Zrotation Yrotation Xrotation
					JOINT LeftShoulder
					{
						OFFSET 3.19178 1.35907 -0.31412
CHANNELS 3 Zrotation Xrotation Yrotation
						JOINT LeftElbow
						{
OFFSET 0 -4.852470 -0.000000
CHANNELS 3 Zrotation Xrotation Yrotation
							JOINT LeftWrist
							{
OFFSET 0 -3.555840 0.000000
CHANNELS 3 Zrotation Xrotation Yrotation
								JOINT lhand
								{
									OFFSET 0 0 0
CHANNELS 3 Zrotation Xrotation Yrotation
									JOINT LFingers
									{
OFFSET 0 -0.693200 0.000000
CHANNELS 3 Zrotation Xrotation Yrotation
										End Site
										{
OFFSET 0 -0.558880 0.000000
										}
									}
								}
								JOINT LThumb
								{
OFFSET 0 0.000000 0.000000
CHANNELS 3 Zrotation Xrotation Yrotation
									End Site
									{
OFFSET 0 -0.567410 0.567410
									}
								}
							}
						}
					}
				}
				JOINT RightCollar
				{
					OFFSET 0 0 0
					CHANNELS 3 Zrotation Yrotation Xrotation
					JOINT RightShoulder
					{
						OFFSET -3.28999 1.24191 -0.26899
CHANNELS 3 Zrotation Xrotation Yrotation
						JOINT RightElbow
						{
OFFSET 0 -4.644620 0.000000
CHANNELS 3 Zrotation Xrotation Yrotation
							JOINT RightWrist
							{
OFFSET 0 -3.407030 0.000000
CHANNELS 3 Zrotation Xrotation Yrotation
								JOINT rhand
								{
									OFFSET 0 0 0
CHANNELS 3 Zrotation Xrotation Yrotation
									JOINT RFingers
									{
OFFSET 0 -0.619580 0.000000
CHANNELS 3 Zrotation Xrotation Yrotation
										End Site
										{
OFFSET 0 -0.499520 0.000000
										}
									}
								}
								JOINT RThumb
								{
OFFSET 0 0.000000 0.000000
CHANNELS 3 Zrotation Xrotation Yrotation
									End Site
									{
OFFSET 0 -0.507150 0.507150
									}
								}
							}
						}
					}
				}
			}
		}
	}
}
MOTION
Frames: 12
Frame Time: 0.008333333333333333
-11.324514 16.085909 4.240370 185.491356 71.377403 -156.551629 0.000000 0.000000 0.000000 9.460892 4.310953 -50.446496 14.673048 19.304946 74.249331 39.382101 3.339035 165.894431 3.249760 -11.086178 -32.573926 0.000000 0.000000 0.000000 41.786145 2.811841 -9.839540 -3.413582 -11.323572 33.393884 -1.147660 9.385809 -19.240631 -2.338553 -9.536915 27.490860 1.123726 -1.829957 27.555439 -8.565710 -1.680987 7.805345 -9.857731 -0.337174 -6.788910 4.049711 -2.743548 -22.735353 3.378646 -5.888402 19.132700 -0.336638 -1.961256 9.833472 0.000000 0.000000 0.000000 18.789636 -20.404573 -86.148849 74.350846 -59.053073 46.490614 24.952164 8.221068 24.998206 0.000000 0.000000 0.000000 -7.125000 0.000000 0.000000 -2.794533 2.789863 -2.655465 0.000000 0.000000 0.000000 -153.175138 -48.185454 -69.242928 -37.899711 -46.768494 -16.894643 -19.294373 -10.413804 19.435901 0.000000 0.000000 0.000000 7.125000 0.000000 0.000000 8.988700 50.264143 -1.173408
-11.206142 16.159327 4.210110 186.884067 72.206009 -154.764888 0.000000 0.000000 0.000000 8.718276 4.060058 -52.479288 14.858144 19.353438 74.808592 39.380904 4.220704 165.956094 3.408079 -11.326133 -33.390178 0.000000 0.000000 0.000000 41.640234 2.555123 -8.858220 -3.063145 -10.786515 31.574053 -0.898180 10.062626 -17.256494 -2.250658 -9.368745 26.956579 1.303979 -1.265471 27.088916 -8.442331 -0.918560 7.740635 -10.058392 0.022678 -6.495129 4.137334 -2.985844 -22.777858 3.369938 -6.253805 19.148701 -0.408315 -2.123167 9.842615 0.000000 0.000000 0.000000 19.531708 -20.233518 -86.047947 74.953538 -59.126219 47.007643 25.742292 7.646405 25.376018 0.000000 0.000000 0.000000 -7.125000 0.000000 0.000000 -2.365400 2.227989 -2.271394 0.000000 0.000000 0.000000 -154.437014 -51.404963 -70.635585 -36.993333 -46.179081 -16.236928 -19.693519 -9.220013 19.581703 0.000000 0.000000 0.000000 7.125000 0.000000 0.000000 8.646699 50.478628 -1.174225
-11.086471 16.236099 4.178697 188.358634 73.006632 -152.887997 0.000000 0.000000 0.000000 7.954204 3.740144 -54.410103 15.092102 19.411017 75.512959 39.409168 5.214773 166.282762 3.296056 -11.151903 -32.802718 0.000000 0.000000 0.000000 41.388270 2.348240 -7.907984 -2.734561 -10.236261 29.760317 -0.623747 10.797500 -14.859216 -2.453263 -9.730802 28.127688 1.439192 -0.738487 26.692926 -8.288156 -0.220754 7.654505 -10.166595 0.349498 -6.268852 4.058431 -3.230339 -22.807453 3.393324 -6.573880 19.162033 -0.435529 -2.273576 9.854823 0.000000 0.000000 0.000000 20.194952 -19.986448 -85.773091 75.330385 -59.170805 47.331100 26.721556 7.021582 25.651022 0.000000 0.000000 0.000000 -7.125000 0.000000 0.000000 -1.813950 1.723667 -1.755524 0.000000 0.000000 0.000000 -156.197132 -54.715198 -72.581620 -36.030773 -45.524509 -15.547733 -20.022059 -7.852232 20.001706 0.000000 0.000000 0.000000 7.125000 0.000000 0.000000 8.461307 50.965799 -1.250010
-10.966140 16.314578 4.146695 189.874888 73.793005 -150.965195 0.000000 0.000000 0.000000 7.179206 3.385081 -56.288984 15.350943 19.473223 76.291223 39.452435 6.266082 166.744386 3.046359 -10.766744 -31.500405 0.000000 0.000000 0.000000 41.082298 2.166735 -6.973578 -2.417106 -9.679285 27.949683 -0.336606 11.561940 -12.251543 -2.803808 -10.362883 30.167284 1.551469 -0.230602 26.332857 -8.118299 0.444145 7.557467 -10.227714 0.659498 -6.076953 3.894724 -3.475955 -22.830475 3.433053 -6.870872 19.174007 -0.440101 -2.418126 9.868592 0.000000 0.000000 0.000000 20.818053 -19.700668 -85.409647 75.592219 -59.200847 47.555980 27.797138 6.371215 25.873671 0.000000 0.000000 0.000000 -7.125000 0.000000 0.000000 -1.200210 1.248654 -1.172534 0.000000 0.000000 0.000000 -158.210985 -58.071638 -74.809468 -35.039603 -44.836752 -14.842507 -20.314643 -6.395844 20.561348 0.000000 0.000000 0.000000 7.125000 0.000000 0.000000 8.355670 51.591839 -1.363974
-10.839521 16.393192 4.112583 191.883336 74.705480 -148.595558 0.000000 0.000000 0.000000 6.379553 3.223753 -57.925496 15.699869 19.547870 77.334490 39.491166 7.103853 167.081436 2.885804 -10.504723 -30.630333 0.000000 0.000000 0.000000 40.676810 1.799581 -6.133119 -2.170381 -9.199776 26.431537 -0.088939 12.199694 -9.567481 -2.966952 -10.639066 31.074519 1.605275 0.308943 26.025330 -7.951944 1.128488 7.427601 -10.257800 0.976054 -5.945321 3.650586 -3.623356 -22.957279 3.434970 -7.007766 19.286799 -0.424913 -2.493473 9.938901 0.000000 0.000000 0.000000 21.395886 -19.301674 -84.877393 75.637326 -59.206010 47.594716 29.033896 5.484585 26.121423 0.000000 0.000000 0.000000 -7.125000 0.000000 0.000000 -0.502537 0.688226 -0.490431 0.000000 0.000000 0.000000 -160.896664 -61.723124 -78.412540 -33.940069 -44.025902 -14.076294 -20.457278 -4.803026 20.885717 0.000000 0.000000 0.000000 7.125000 0.000000 0.000000 8.323009 51.950945 -1.432536
-10.711570 16.471835 4.078024 193.996077 75.644676 -146.131237 0.000000 0.000000 0.000000 5.574676 3.103476 -59.510650 16.067884 19.625152 78.433910 39.528937 7.896376 167.392088 2.744138 -10.268795 -29.851852 0.000000 0.000000 0.000000 40.250234 1.393088 -5.312568 -1.938643 -8.736682 24.975367 0.150364 12.810604 -6.867232 -3.090385 -10.839837 31.741812 1.646692 0.855197 25.728937 -7.786332 1.816953 7.290779 -10.281312 1.293999 -5.826458 3.389405 -3.749947 -23.106074 3.428875 -7.110737 19.420954 -0.405538 -2.554155 10.021190 0.000000 0.000000 0.000000 21.964128 -18.878690 -84.309370 75.636510 -59.205901 47.594009 30.304806 4.547893 26.374495 0.000000 0.000000 0.000000 -7.125000 0.000000 0.000000 0.212921 0.109698 0.212673 0.000000 0.000000 0.000000 -163.724700 -65.437129 -82.307015 -32.817573 -43.188969 -13.297160 -20.568140 -3.181298 21.160232 0.000000 0.000000 0.000000 7.125000 0.000000 0.000000 8.305811 52.253488 -1.491477
-10.577437 16.548166 4.046475 198.014477 76.391908 -141.842429 0.000000 0.000000 0.000000 5.184098 3.262086 -60.898143 16.665708 19.723721 80.205552 41.349910 20.027492 -19.171653 2.765139 -10.304658 -29.969219 0.000000 0.000000 0.000000 40.147271 0.941601 -4.598992 -1.767919 -8.356050 23.806256 0.325481 13.198479 -3.972869 -3.225699 -11.049315 32.449154 1.573823 1.593146 25.253213 -7.247597 2.755652 7.285068 -9.834617 1.741819 -5.465048 2.875247 -4.056352 -22.850891 3.430628 -7.332562 19.062863 -0.347082 -2.717728 9.865070 0.000000 0.000000 0.000000 22.041628 -18.713951 -83.807090 75.335465 -59.171281 47.335486 31.152654 3.500678 26.847591 0.000000 0.000000 0.000000 -7.125000 0.000000 0.000000 0.626968 -0.626174 0.638180 0.000000 0.000000 0.000000 -164.529942 -67.019430 -82.322976 -32.444278 -42.896910 -13.042794 -20.671207 -4.659802 21.660845 0.000000 0.000000 0.000000 7.125000 0.000000 0.000000 8.379945 52.787936 -1.615786
-10.444062 16.624706 4.015283 202.059332 77.042649 -137.515496 0.000000 0.000000 0.000000 4.835364 3.368895 -62.286125 17.287221 19.819210 82.044705 43.698356 32.093627 -177.780606 2.770000 -10.312510 -29.995280 0.000000 0.000000 0.000000 40.073499 0.477497 -3.938223 -1.599262 -7.973138 22.634150 0.477355 13.454049 -1.020224 -3.425368 -11.343192 33.459239 1.599514 2.276746 24.785012 -6.739035 3.646562 7.281289 -9.466346 2.167833 -5.106449 2.431274 -4.333668 -22.640451 3.425787 -7.539004 18.717513 -0.300747 -2.868124 9.718922 0.000000 0.000000 0.000000 22.209135 -18.559301 -83.268292 75.036482 -59.136723 47.078759 31.928324 2.438069 27.327805 0.000000 0.000000 0.000000 -7.125000 0.000000 0.000000 0.995732 -1.352384 1.019435 0.000000 0.000000 0.000000 -165.727972 -69.090380 -83.182909 -32.097575 -42.624560 -12.806931 -20.822343 -5.512054 22.141183 0.000000 0.000000 0.000000 7.125000 0.000000 0.000000 8.398434 53.310760 -1.725528
-10.315403 16.702587 3.985894 206.119910 77.161403 -133.101162 0.000000 0.000000 0.000000 4.694079 3.163281 -63.690755 18.026517 19.895784 84.218292 48.903417 42.996177 -165.236300 2.672200 -10.142925 -29.442277 0.000000 0.000000 0.000000 40.142019 -0.054770 -3.568466 -1.438003 -7.571543 21.424957 0.502335 12.977349 2.248266 -3.988004 -12.113564 36.177937 2.190395 2.639646 24.371933 -6.427240 4.249744 7.279221 -9.574432 2.461450 -4.780776 2.401831 -4.433917 -22.711311 3.383118 -7.650138 18.478755 -0.325673 -2.936807 9.645885 0.000000 0.000000 0.000000 22.919913 -18.443541 -82.518437 74.770240 -59.104939 46.850287 32.325674 1.296198 27.832806 0.000000 0.000000 0.000000 -7.125000 0.000000 0.000000 1.129669 -2.012929 1.170026 0.000000 0.000000 0.000000 -169.288501 -74.073391 -89.086230 -31.848585 -42.425368 -12.638815 -21.245762 -2.606354 22.491021 0.000000 0.000000 0.000000 7.125000 0.000000 0.000000 8.095945 53.751595 -1.748331
-10.179644 16.781540 3.950902 210.415479 77.362182 -128.539533 0.000000 0.000000 0.000000 4.434481 3.069867 -64.831701 18.719650 19.956608 86.253694 54.105617 52.522068 -149.515180 2.587273 -9.994574 -28.959466 0.000000 0.000000 0.000000 40.055104 -0.749948 -3.132809 -1.286979 -7.183621 20.262591 0.477372 12.406720 5.597488 -4.567532 -12.862668 38.884784 2.693939 3.044367 24.084524 -6.128028 4.883917 7.257911 -9.664502 2.767107 -4.536941 2.340238 -4.546818 -22.748131 3.367048 -7.772443 18.242925 -0.337181 -3.010019 9.570685 0.000000 0.000000 0.000000 23.590640 -18.244069 -81.762146 74.477484 -59.069443 46.599133 32.720725 0.129636 28.286278 0.000000 0.000000 0.000000 -7.125000 0.000000 0.000000 1.270418 -2.618063 1.328076 0.000000 0.000000 0.000000 -174.126909 -78.596993 -96.157358 -31.523393 -42.162132 -12.420346 -21.686601 -0.128101 22.976234 0.000000 0.000000 0.000000 7.125000 0.000000 0.000000 7.827172 54.337461 -1.802195
-10.028291 16.862850 3.903608 215.227109 77.743095 -123.654431 0.000000 0.000000 0.000000 3.915058 3.222853 -65.393575 19.311402 19.982840 87.985630 59.301534 59.024707 -126.817525 2.530618 -9.892855 -28.630799 0.000000 0.000000 0.000000 39.626841 -1.802890 -2.552431 -1.158429 -6.825729 19.203064 0.342727 11.629817 9.124003 -5.184156 -13.565065 41.565603 3.005679 3.540932 24.073095 -5.856452 5.586151 7.194344 -9.715008 3.099203 -4.472829 2.208042 -4.687505 -22.710198 3.409390 -7.919279 18.013528 -0.319221 -3.093179 9.490736 0.000000 0.000000 0.000000 24.173413 -17.860761 -80.991720 74.126503 -59.025795 46.298168 33.110728 -1.091149 28.626592 0.000000 0.000000 0.000000 -7.125000 0.000000 0.000000 1.426125 -3.101512 1.502505 0.000000 0.000000 0.000000 -181.771636 -82.111697 -105.793080 -31.030856 -41.758252 -12.091299 -22.165696 1.411446 23.758743 0.000000 0.000000 0.000000 7.125000 0.000000 0.000000 7.632443 55.241825 -1.924268
-9.874453 16.940795 3.852613 220.415240 78.106180 -118.370055 0.000000 0.000000 0.000000 3.331177 3.405467 -65.871505 19.618617 19.996522 88.884759 43.858516 60.652608 -101.791273 2.500693 -9.839112 -28.457210 0.000000 0.000000 0.000000 39.037523 -2.878758 -2.016846 -1.035159 -6.463696 18.138517 0.106879 10.420854 12.577597 -5.769522 -14.187167 44.022902 3.225171 4.083039 23.983752 -5.545285 6.327768 7.147078 -9.662033 3.452155 -4.361234 2.009602 -4.842319 -22.607314 3.469095 -8.062570 17.730799 -0.281905 -3.180454 9.384756 0.000000 0.000000 0.000000 24.623077 -17.432686 -80.145009 73.739477 -58.976428 45.966436 33.451798 -2.227629 28.955520 0.000000 0.000000 0.000000 -7.125000 0.000000 0.000000 1.554222 -3.559731 1.648729 0.000000 0.000000 0.000000 -207.313377 -85.062424 -39.546468 -30.673367 -41.463181 -11.853155 -23.079282 2.155836 24.225895 0.000000 0.000000 0.000000 7.125000 0.000000 0.000000 6.845919 55.915138 -1.830376
